<?xml version="1.0" encoding="UTF-8"?>
<svg version="1.1" xmlns="http://www.w3.org/2000/svg" width="400" height="400">
<path d="M0 0 C3.92798366 3.84010931 7.2668738 8.08677505 10.52783203 12.49365234 C11.42888672 13.65574219 11.42888672 13.65574219 12.34814453 14.84130859 C33.35747464 43.05787527 39.15848987 81.4719686 34.65673828 115.69433594 C34.05385082 119.65117333 33.34244238 123.57509565 32.52783203 127.49365234 C32.38861328 128.16396484 32.24939453 128.83427734 32.10595703 129.52490234 C27.90867298 148.801318 19.2987368 166.45406389 6.52783203 181.49365234 C5.72732422 182.43982422 4.92681641 183.38599609 4.10205078 184.36083984 C-19.94665447 212.05194227 -55.81077573 224.26215222 -91.53515625 227.29956055 C-125.68251732 229.55618166 -156.21663358 223.65597605 -186.72094727 208.37304688 C-187.780821 207.8422905 -187.780821 207.8422905 -188.86210632 207.30081177 C-189.65908684 206.90126785 -189.65908684 206.90126785 -190.47216797 206.49365234 C-191.51786453 207.54601074 -191.51786453 207.54601074 -192.58468628 208.61962891 C-199.14225081 215.21766613 -205.70503636 221.81046977 -212.27302361 228.39813232 C-215.64984635 231.78541022 -219.02477626 235.17453085 -222.39550781 238.56787109 C-225.64606067 241.84009066 -228.90141775 245.10745769 -232.1602211 248.37145996 C-233.40516083 249.62010657 -234.64833353 250.87051743 -235.88973618 252.12268066 C-237.62339969 253.87077703 -239.36313449 255.61260026 -241.10449219 257.35302734 C-241.8791684 258.13848938 -241.8791684 258.13848938 -242.66949463 258.93981934 C-246.24406365 262.49365234 -246.24406365 262.49365234 -248.47216797 262.49365234 C-248.54244865 238.55315916 -248.59524914 214.61268159 -248.62760448 190.67210579 C-248.64303122 179.55448062 -248.66403998 168.43691979 -248.69848633 157.31933594 C-248.72851769 147.62201512 -248.74777339 137.92474094 -248.75443345 128.22737491 C-248.75832257 123.0992695 -248.76737375 117.97129742 -248.78935814 112.84323502 C-248.80994104 108.00219411 -248.81595842 103.16133961 -248.81149101 98.32025909 C-248.81230658 96.55722155 -248.81814091 94.79417681 -248.82978439 93.03117752 C-248.92532024 77.79974448 -247.32973931 62.98314721 -242.78466797 48.36865234 C-242.53048096 47.54228271 -242.27629395 46.71591309 -242.0144043 45.86450195 C-232.6199347 16.62382869 -211.48373534 -7.44818794 -184.39794922 -21.70556641 C-126.94059784 -50.56610256 -47.78662717 -44.44170621 0 0 Z " fill="#FFB400" transform="translate(306.47216796875,104.50634765625)"/>
<path d="M0 0 C7.96561238 4.44236075 13.27294191 8.88132572 16.25 17.8125 C17.12361871 26.124358 16.27548542 32.06080907 11.25 38.8125 C6.85952186 44.17863995 1.25728216 48.13741877 -5.6484375 49.30078125 C-13.02866768 49.63279675 -18.68379382 48.03538386 -24.75 43.8125 C-30.5704606 38.24510291 -33.90317555 31.4250475 -34.3125 23.375 C-34.02735441 16.588535 -31.61225775 11.03508948 -27.10546875 5.9609375 C-19.26942888 -1.220625 -10.1215057 -3.20514347 0 0 Z " fill="#FFFDFA" transform="translate(208.75,176.1875)"/>
<path d="M0 0 C5.30595256 3.7538712 9.33500159 8.3801635 11.296875 14.625 C12.10200215 22.88539548 11.8634856 29.91355143 6.71484375 36.71484375 C1.81037471 42.62371386 -2.61030462 46.1022765 -10.3671875 46.8984375 C-17.89543906 47.15666249 -23.56648342 46.17834438 -29.703125 41.625 C-32.06832139 39.14694155 -33.96763332 36.57416322 -35.703125 33.625 C-36.07824219 33.03460938 -36.45335938 32.44421875 -36.83984375 31.8359375 C-39.06954341 26.12548497 -38.80231313 16.51105415 -36.703125 10.6875 C-32.76283529 4.65393138 -27.9942993 -0.85688162 -20.89453125 -2.96875 C-13.16152981 -4.40231889 -6.91962052 -3.87851341 0 0 Z " fill="#FFFDFB" transform="translate(146.703125,178.375)"/>
<path d="M0 0 C5.48766616 3.87309772 10.12676622 8.86046524 11.296875 15.62109375 C11.83301482 22.71998211 11.76008399 28.33601077 8.296875 34.62109375 C7.65685547 35.85279297 7.65685547 35.85279297 7.00390625 37.109375 C5.05006569 39.98424795 3.30547966 41.16979945 0.296875 42.87109375 C-0.569375 43.37125 -1.435625 43.87140625 -2.328125 44.38671875 C-8.23530354 47.45689707 -14.75967612 47.59762604 -21.1796875 46.0078125 C-28.49405516 43.15495776 -32.70108687 37.97935126 -36.640625 31.37109375 C-38.503405 24.7965761 -38.503405 18.4456114 -36.640625 11.87109375 C-28.41083989 -1.93370708 -15.01248179 -8.4385447 0 0 Z " fill="#FFFEFC" transform="translate(279.703125,178.37890625)"/>
</svg>
